# xmcd
#
# Track frame offsets: 
#        150
#        22371
#        47672
#        71434
#        94946
#        117945
#        145889
#        165094
#        178842
#        204316
#
# Disc length: 3664 seconds
#
# Revision: 0
# Processed by: cddbd v1.5.2PL0 Copyright (c) Steve Scherf et al.
# Submitted via: ExactAudioCopyFreeDBPlugin 1.0
#
DISCID=880e4e0a
DTITLE=Pugsley Buzzard - Wooden Kimono
DYEAR=2010
DGENRE=Blues
TTITLE0=Aces and Eights (Deadman's Hand) 
TTITLE1=Chained
TTITLE2=Digging Man's Blues
TTITLE3=Black Dog
TTITLE4=Wooden Kimono Blues
TTITLE5=Cold Wind
TTITLE6=Stuck Between a Rock and a Hard Place Polka
TTITLE7=Big Al's Gal
TTITLE8=Sunnyside Up
TTITLE9=Desert Waves
EXTD=
EXTT0=
EXTT1=
EXTT2=
EXTT3=
EXTT4=
EXTT5=
EXTT6=
EXTT7=
EXTT8=
EXTT9=
PLAYORDER=
